<svg viewBox="-1300 -1300 3600 3600" version="1.1" style="background: rgba(160,160,160,.1);" xmlns="http://www.w3.org/2000/svg">
   <path d="m 741.80075,684.39806 v -38.42905 h 36.39793 v 55.10168 c 0,9.23827 -8.16124,16.67263 -18.16918,16.67263 h -497.359 c -10.06752,0 -18.16918,-7.48902 -18.16918,-16.67263 V 322.62931 c 0,-9.23827 8.16124,-16.67263 18.16918,-16.67263 h 497.359 c 10.06752,0 18.16918,7.48902 18.16918,16.67263 V 556.04613 H 741.80075 V 339.30194 H 280.83968 V 684.39806 Z M 402.18598,506.30157 c -33.47894,0 -60.64337,-24.92695 -60.64337,-55.64832 0,-30.72137 27.16443,-55.64832 60.64337,-55.64832 33.47895,0 60.64337,24.92695 60.64337,55.64832 0,30.72137 -27.16442,55.64832 -60.64337,55.64832 z m 0,-33.39993 c 13.4035,0 24.24544,-9.94891 24.24544,-22.24839 0,-12.29948 -10.84194,-22.24839 -24.24544,-22.24839 -13.40349,0 -24.24543,9.94891 -24.24543,22.24839 0,12.29948 10.84194,22.24839 24.24543,22.24839 z m -74.22557,120.58958 26.09214,-23.23235 c 43.72517,41.38092 88.70134,44.49679 130.52024,11.58885 5.12312,-4.04517 6.55283,-5.19312 19.47975,-15.57935 40.56791,-32.74395 61.35822,-47.12068 88.04607,-57.61623 37.23193,-14.65005 73.62986,-12.9008 109.96822,8.25431 l -19.53931,28.20681 c -46.28674,-26.94953 -80.24226,-13.55676 -154.46783,46.30072 -13.04607,10.55022 -14.47577,11.69817 -19.7776,15.85266 -56.77125,44.60612 -123.55043,39.95965 -180.32168,-13.77542 z" fill="#757575" opacity="0.2" />
</svg>