<?xml version="1.0" standalone="no"?><!DOCTYPE svg PUBLIC "-//W3C//DTD SVG 1.1//EN" "http://www.w3.org/Graphics/SVG/1.1/DTD/svg11.dtd"><svg t="1775233982495" class="icon" viewBox="0 0 1462 1024" version="1.1" xmlns="http://www.w3.org/2000/svg" p-id="8013" xmlns:xlink="http://www.w3.org/1999/xlink" width="285.546875" height="200"><path d="M1462.857143 646.582857c0-208.091429-163.620571-377.344-364.690286-377.344-14.701714 0-29.110857 1.170286-43.300571 2.925714C1002.276571 112.054857 855.04 0 688.420571 0c-213.577143 0-387.218286 179.712-387.218285 400.676571C135.094857 400.676571 0 540.525714 0 712.411429S135.094857 1024 301.202286 1024h817.444571v-1.097143C1310.208 1011.858286 1462.857143 847.506286 1462.857143 646.582857z m-364.690286 288.402286H301.202286c-118.637714 0-215.186286-99.913143-215.186286-222.646857s96.548571-222.573714 215.186286-222.573715h86.016V400.676571c0-171.812571 135.094857-311.588571 301.202285-311.588571 126.976 0 239.177143 83.894857 282.112 204.507429-138.24 53.613714-237.056 191.414857-237.056 352.987428h86.016c0-158.939429 125.074286-288.256 278.674286-288.256s278.674286 129.316571 278.674286 288.182857c0 159.085714-125.074286 288.475429-278.674286 288.475429z" fill="#298CF8" p-id="8014"></path></svg>